<?xml version="1.0" encoding="UTF-8" standalone="no"?>
<svg
   xmlns:dc="http://purl.org/dc/elements/1.1/"
   xmlns:cc="http://creativecommons.org/ns#"
   xmlns:rdf="http://www.w3.org/1999/02/22-rdf-syntax-ns#"
   xmlns:svg="http://www.w3.org/2000/svg"
   xmlns="http://www.w3.org/2000/svg"
   version="1.1"
   id="svg2"
   viewBox="0 0 48 48"
   height="48"
   width="48">
  <defs
     id="defs4" />
  <metadata
     id="metadata7">
    <rdf:RDF>
      <cc:Work
         rdf:about="">
        <dc:format>image/svg+xml</dc:format>
        <dc:type
           rdf:resource="http://purl.org/dc/dcmitype/StillImage" />
        <dc:title></dc:title>
      </cc:Work>
    </rdf:RDF>
  </metadata>
  <g
     transform="translate(0,-1004.3622)"
     id="layer1">
    <g
       transform="matrix(0.50119265,-0.08312937,0.08312937,0.50119265,-77.981598,519.90973)"
       id="g4879">
      <path
         style="opacity:1;fill:#3c165b;fill-opacity:1;fill-rule:nonzero;stroke:none;stroke-width:0.60000002;stroke-miterlimit:4;stroke-dasharray:none;stroke-dashoffset:0;stroke-opacity:1"
         d="m 37.572266,12.632812 0.224609,0.802177 c 13.657214,0.303236 24.071553,3.183959 24.091797,5.209542 -0.0206,1.901981 -8.956208,3.552291 -21.583984,3.986328 l 0.523437,1.921875 c 14.748058,-0.60939 25.265621,-3.066006 25.294922,-5.908203 -0.02745,-3.077787 -12.305282,-5.663036 -28.550781,-6.011719 z m -8.107422,0.01758 C 13.576138,13.06854 1.7468272,15.62463 1.7246094,18.644532 1.7310194,21.9055 15.443353,24.580994 32.755859,24.69922 L 32.21875,22.732422 C 17.472306,22.6004 5.9699557,20.809092 5.9570312,18.642578 5.9764921,16.602284 15.957838,13.823877 29.733188,13.53739 Z"
         transform="translate(0,1004.3622)"
         id="path4792" />
      <path
         style="opacity:1;fill:#3c165b;fill-opacity:1;fill-rule:nonzero;stroke:none;stroke-width:0.66460234;stroke-miterlimit:4;stroke-dasharray:none;stroke-dashoffset:0;stroke-opacity:1"
         d="m 36.788872,1014.0769 0.369057,0.9567 c 20.480722,0.3294 36.261584,3.677 36.31333,7.7031 -0.01853,3.7234 -13.551697,6.9178 -32.227738,7.6071 l 0.970621,3.6406 c 21.565802,-1.0042 37.220971,-5.732 37.244892,-11.2477 -0.02123,-6.1017 -18.437271,-8.3596 -42.670162,-8.6598 z m -7.96721,-0.038 c -22.6141361,0.7554 -40.410922,2.9613 -40.434993,8.6984 -0.009,6.3263 20.3815904,11.456 45.537159,11.4557 0.07812,10e-5 0.156237,10e-5 0.234355,0 l -0.99015,-3.7126 c -21.536672,-0.08 -38.7841882,-3.5228 -38.7955423,-7.7431 0.026901,-3.9066 14.8928404,-7.1983 34.6806553,-7.6792 z"
         id="path4804" />
    </g>
  </g>
</svg>
